<?xml version="1.0" encoding="UTF-8" standalone="no"?>
<svg width="15px" height="14px" viewBox="0 0 15 14" version="1.1" xmlns="http://www.w3.org/2000/svg" xmlns:xlink="http://www.w3.org/1999/xlink">
    <!-- Generator: Sketch 48.2 (47327) - http://www.bohemiancoding.com/sketch -->
    <title>Shape Copy 3</title>
    <desc>Created with Sketch.</desc>
    <defs></defs>
    <g id="实时分析-1105" stroke="none" stroke-width="1" fill="none" fill-rule="evenodd" transform="translate(-420.000000, -1017.000000)">
        <g id="Group-3-Copy-5" transform="translate(31.000000, 830.000000)" fill="#FF808B" fill-rule="nonzero">
            <g id="Group-2-Copy-2" transform="translate(362.272727, 77.000000)">
                <path d="M39.5006291,111.431927 C38.5593311,110.508606 37.3148391,110 35.9966096,110 C34.6418548,110 33.3732035,110.532536 32.4245775,111.499482 C31.4887754,112.453375 30.9801698,113.715042 30.9929937,115.051476 C31.0030697,116.115289 31.3434758,117.124485 31.9626876,117.964337 L30.7962841,119.152838 L28.3687861,116.77114 C28.1650839,116.567057 27.8674563,116.488123 27.58939,116.564438 C27.3113237,116.640752 27.0956822,116.860551 27.0246906,117.140023 C26.9536989,117.419496 27.0383002,117.715562 27.2462358,117.915331 L29.6737337,120.297029 L28.021739,121.980855 C27.7191224,122.298013 27.7273975,122.799435 28.0403148,123.106435 C28.3532321,123.413434 28.854721,123.412136 29.1660442,123.10352 L30.8180389,121.419809 L33.2455369,123.801507 C33.3951998,123.948774 33.5968442,124.031167 33.806812,124.030849 C34.1323853,124.030847 34.4256088,123.833901 34.5487553,123.532516 C34.6719019,123.231131 34.6005,122.885198 34.3680872,122.657202 L31.9405893,120.275618 L33.1056188,119.087917 C33.9455851,119.684458 34.9469952,120.007461 35.9960371,120.007461 C37.3507918,120.007461 38.6194431,119.475039 39.5680692,118.507979 C40.5039858,117.553971 41.0124768,116.292419 40.9997674,114.955984 C40.9871725,113.619435 40.4546366,112.367958 39.5006291,111.431927 Z M38.4238785,117.385314 C37.7791334,118.04254 36.9170688,118.404357 35.9961516,118.404357 C35.1000807,118.404357 34.254275,118.058798 33.6146823,117.430999 C32.9661588,116.794956 32.6043412,115.944456 32.5958683,115.036019 C32.5871664,114.127582 32.9326105,113.270327 33.5688826,112.621918 C34.2136277,111.964692 35.0756924,111.602875 35.9966096,111.602875 C36.8924514,111.602875 37.7382572,111.948548 38.3780788,112.576232 C39.0263734,113.212276 39.3881909,114.06289 39.3968928,114.971213 C39.4055948,115.879649 39.0601506,116.736905 38.4238785,117.385314 Z" id="Shape-Copy-3"></path>
            </g>
        </g>
    </g>
</svg>