<?xml version="1.0" encoding="UTF-8" standalone="no"?>
<svg width="14px" height="14px" viewBox="0 0 14 14" version="1.1" xmlns="http://www.w3.org/2000/svg" xmlns:xlink="http://www.w3.org/1999/xlink">
    <!-- Generator: Sketch 48.2 (47327) - http://www.bohemiancoding.com/sketch -->
    <title>Shape</title>
    <desc>Created with Sketch.</desc>
    <defs></defs>
    <g id="系统配置" stroke="none" stroke-width="1" fill="none" fill-rule="evenodd" transform="translate(-157.000000, -402.000000)">
        <g id="Group-3-Copy-7" transform="translate(31.000000, 314.000000)" fill="#B1B4D6" fill-rule="nonzero">
            <g id="Group-2" transform="translate(36.000000, 83.000000)">
                <path d="M96.9898688,5 C93.1279841,5 90,8.1279841 90,11.9898688 C90,15.8517535 93.1279841,18.9797376 96.9898688,18.9797376 C100.851753,18.9797376 103.979738,15.8517535 103.979738,11.9898688 C103.979738,8.1279841 100.851753,5 96.9898688,5 Z M97.110998,17.5404374 C96.4768509,17.5404374 95.963833,17.0274195 95.963833,16.3932724 C95.963833,15.7591252 96.4768509,15.2461074 97.110998,15.2461074 C97.7451451,15.2461074 98.258163,15.7591252 98.258163,16.3932724 C98.2652883,17.0202942 97.7451451,17.5404374 97.110998,17.5404374 Z M100.132103,10.6930736 C99.9753479,11.020835 99.6689622,11.3984732 99.1986958,11.8544891 C98.6785527,12.3532565 98.4647952,12.5883897 98.372167,12.7023936 C98.2652883,12.8377734 98.1797853,12.9945288 98.1299085,13.1869105 C98.0729066,13.3864175 98.0444056,13.6785527 98.0515308,14.0419404 L98.0586561,14.4694553 L96.0849622,14.4694553 L96.0849622,14.0490656 C96.0849622,13.5289225 96.1277137,13.1156581 96.2132167,12.7950219 C96.3058449,12.4601352 96.4412247,12.1608748 96.6264811,11.9114911 C96.7974871,11.6763579 97.082497,11.3557217 97.4957614,10.9210815 C97.9660278,10.4365646 98.1512843,10.2014314 98.2154115,10.0874274 C98.258163,10.016175 98.3294155,9.85229423 98.3294155,9.46753082 C98.3294155,9.20389662 98.2367873,8.97588867 98.0444056,8.76213121 C97.8591491,8.56262425 97.5812644,8.46999602 97.196501,8.46999602 C96.0635865,8.46999602 95.906831,9.28227435 95.906831,10.0803022 L95.906831,10.5006918 L93.9260119,10.5006918 L93.9402624,10.0731769 C93.9616382,9.40340358 94.0400159,8.89751093 94.1896461,8.52699801 C94.3392763,8.14935984 94.58866,7.80734791 94.9164215,7.50808748 C95.2370577,7.21595229 95.6075706,7.00219483 95.9994592,6.86681511 C96.3913479,6.73143539 96.8046123,6.66730815 97.2321272,6.66730815 C98.1085328,6.66730815 98.8566839,6.93094235 99.4552048,7.45821074 C100.060851,7.99972962 100.374362,8.71937972 100.374362,9.60291054 C100.374362,9.98767396 100.295984,10.3581869 100.132103,10.6930736 Z" id="Shape"></path>
            </g>
        </g>
    </g>
</svg>