<?xml version="1.0" encoding="UTF-8" standalone="no"?>
<svg width="16px" height="16px" viewBox="0 0 16 16" version="1.1" xmlns="http://www.w3.org/2000/svg" xmlns:xlink="http://www.w3.org/1999/xlink">
    <!-- Generator: Sketch 48.2 (47327) - http://www.bohemiancoding.com/sketch -->
    <title>时间 (1)</title>
    <desc>Created with Sketch.</desc>
    <defs></defs>
    <g id="系统配置" stroke="none" stroke-width="1" fill="none" fill-rule="evenodd" transform="translate(-221.000000, -736.000000)">
        <g id="Group-3-Copy-7" transform="translate(31.000000, 314.000000)" fill="#9299FB" fill-rule="nonzero">
            <g id="Group-2-Copy-3" transform="translate(36.000000, 376.000000)">
                <g id="时间-(1)" transform="translate(154.000000, 46.000000)">
                    <path d="M8,1.14285714 C11.7870954,1.14285714 14.8571429,4.21290457 14.8571429,8 C14.8571429,11.7870954 11.7870954,14.8571429 8,14.8571429 C4.21290457,14.8571429 1.14285714,11.7870954 1.14285714,8 C1.14285714,4.21290457 4.21290457,1.14285714 8,1.14285714 Z M8,5.68434189e-14 C3.581722,5.72390112e-14 -1.13145755e-13,3.581722 -1.13686838e-13,8 C-1.14227921e-13,12.418278 3.581722,16 8,16 C12.418278,16 16,12.418278 16,8 C16,3.581722 12.418278,5.9556451e-14 8,5.68434189e-14 Z" id="Shape"></path>
                    <path d="M11.1885714,11.8514286 C11.034133,11.8510502 10.886158,11.789394 10.7771429,11.68 L7.6,8.49142858 C7.38287771,8.26987534 7.38467094,7.91479742 7.60401989,7.69544847 C7.82336885,7.47609952 8.17844676,7.47430629 8.4,7.69142858 L11.5885714,10.8685714 C11.6967501,10.9758666 11.757599,11.1219214 11.757599,11.2742857 C11.757599,11.42665 11.6967501,11.5727048 11.5885714,11.68 C11.4838022,11.7887327 11.3395635,11.8505492 11.1885714,11.8514286 Z" id="Shape"></path>
                    <path d="M8,8.67428572 C7.68440871,8.67428572 7.42857142,8.41844843 7.42857142,8.10285714 L7.42857142,3.42857142 C7.42857144,3.11298014 7.68440872,2.85714287 8,2.85714287 C8.31559128,2.85714287 8.57142856,3.11298014 8.57142858,3.42857142 L8.57142858,8.10285714 C8.57142858,8.41844843 8.31559129,8.67428572 8,8.67428572 Z" id="Shape"></path>
                </g>
            </g>
        </g>
    </g>
</svg>