<?xml version="1.0" encoding="UTF-8" standalone="no"?>
<svg width="20px" height="12px" viewBox="0 0 20 12" version="1.1" xmlns="http://www.w3.org/2000/svg" xmlns:xlink="http://www.w3.org/1999/xlink">
    <!-- Generator: Sketch 48.2 (47327) - http://www.bohemiancoding.com/sketch -->
    <title>Shape Copy 2</title>
    <desc>Created with Sketch.</desc>
    <defs></defs>
    <g id="综合分析-修改" stroke="none" stroke-width="1" fill="none" fill-rule="evenodd" transform="translate(-940.000000, -540.000000)">
        <path d="M951.891827,540 L942.180059,540 C940.976211,540 940,541.012242 940,542.260522 L940,549.59133 C940,550.83961 940.976211,551.851852 942.180059,551.851852 L951.894015,551.851852 C953.097863,551.851852 954.074074,550.83961 954.074074,549.59133 L954.074074,542.260522 C954.071885,541.012242 953.095674,540 951.891827,540 Z M959.232278,540.033065 L955.924888,541.524574 C955.717398,541.618799 955.555556,542.204831 955.555556,542.836826 L955.555556,548.276583 C955.555556,548.908579 955.717398,549.494611 955.924888,549.588836 L959.230203,551.078047 C959.643108,551.264198 959.999991,550.645992 959.999991,549.685358 L959.999991,541.425753 C960.002066,540.46512 959.645183,539.846913 959.232278,540.033065 Z" id="Shape-Copy-2" fill="#FF9895" fill-rule="nonzero"></path>
    </g>
</svg>