<?xml version="1.0" encoding="UTF-8" standalone="no"?>
<svg width="18px" height="18px" viewBox="0 0 18 18" version="1.1" xmlns="http://www.w3.org/2000/svg" xmlns:xlink="http://www.w3.org/1999/xlink">
    <!-- Generator: Sketch 48.2 (47327) - http://www.bohemiancoding.com/sketch -->
    <title>Shape</title>
    <desc>Created with Sketch.</desc>
    <defs></defs>
    <g id="综合分析-修改" stroke="none" stroke-width="1" fill="none" fill-rule="evenodd" transform="translate(-1599.000000, -24.000000)">
        <path d="M1614.3679,26.6359085 C1612.66731,24.9363397 1610.40717,24 1608.00181,24 C1605.59728,24 1603.33685,24.9363397 1601.63696,26.6360966 C1599.93645,28.3363907 1599,30.5972798 1599,33.0021323 C1598.99957,35.4072534 1599.93529,37.667632 1601.63559,39.3689738 C1603.33526,41.0676561 1605.59591,42.004157 1608.00012,42.004157 C1610.40548,42.004157 1612.66688,41.0670651 1614.3679,39.3672008 C1617.8771,35.8576528 1617.87764,30.1467997 1614.3679,26.6359085 Z M1613.53829,38.53743 C1612.05909,40.0164197 1610.09227,40.8317646 1608.00014,40.8317646 C1605.90949,40.8317646 1603.94316,40.0168226 1602.46493,38.5391761 C1600.98666,37.0606432 1600.17277,35.0942357 1600.17309,33.0021323 C1600.17309,30.9103243 1600.98739,28.9437019 1602.46616,27.4655182 C1603.94472,25.9873076 1605.91041,25.173279 1608.00181,25.173279 C1610.0933,25.173279 1612.05941,25.9872807 1613.53829,27.4656256 C1616.59037,30.5184612 1616.59037,35.4856421 1613.53829,38.53743 Z M1611.89183,35.2082191 L1608.78014,33.408663 L1608.78014,28.5010393 C1608.78014,28.0868523 1608.44412,27.750866 1608.02983,27.750866 C1607.61586,27.750866 1607.27984,28.0868523 1607.27984,28.5010393 L1607.27984,33.7523055 C1607.27984,34.0305613 1607.62572,34.2638739 1607.8507,34.3929547 C1607.91292,34.4866558 1608.08399,34.571465 1608.18827,34.631452 L1611.28275,36.507006 C1611.64122,36.7139382 1612.02991,36.5909555 1612.23695,36.2323767 C1612.44399,35.8736905 1612.25122,35.4153394 1611.8918,35.2082996 L1611.8918,35.2082191 L1611.89183,35.2082191 Z" id="Shape" fill="#FFFFFF" fill-rule="nonzero"></path>
    </g>
</svg>